<?xml version="1.0" encoding="UTF-8" standalone="no"?>
<svg
   xmlns:dc="http://purl.org/dc/elements/1.1/"
   xmlns:cc="http://creativecommons.org/ns#"
   xmlns:rdf="http://www.w3.org/1999/02/22-rdf-syntax-ns#"
   xmlns:svg="http://www.w3.org/2000/svg"
   xmlns="http://www.w3.org/2000/svg"
   viewBox="0 0 196.36501 102.973"
   height="102.973"
   width="196.36501"
   xml:space="preserve"
   version="1.1"
   id="svg2"><metadata
     id="metadata8"><rdf:RDF><cc:Work
         rdf:about=""><dc:format>image/svg+xml</dc:format><dc:type
           rdf:resource="http://purl.org/dc/dcmitype/StillImage" /></cc:Work></rdf:RDF></metadata><defs
     id="defs6"><clipPath
       id="clipPath34"
       clipPathUnits="userSpaceOnUse"><path
         id="path36"
         d="m 0,82.378 157.092,0 L 157.092,0 0,0 0,82.378 Z" /></clipPath></defs><g
     transform="matrix(1.25,0,0,-1.25,0,102.973)"
     id="g10"><g
       transform="translate(24.8526,0)"
       id="g12"><path
         id="path14"
         style="fill:#76cddc;fill-opacity:1;fill-rule:nonzero;stroke:none"
         d="m 0,0 11.123,0 0,72.124 L 0,75.426 0,0 Z" /></g><g
       transform="translate(11.8179,0)"
       id="g16"><path
         id="path18"
         style="fill:#9ca0a0;fill-opacity:1;fill-rule:nonzero;stroke:none"
         d="m 0,0 9.385,0 0,65.346 L 0,67.78 0,0 Z" /></g><path
       id="path20"
       style="fill:#c1c1c2;fill-opacity:1;fill-rule:nonzero;stroke:none"
       d="m 0,0 7.647,0 0,58.916 L 0,61.002 0,0 Z" /><g
       transform="translate(40.4937,82.3788)"
       id="g22"><path
         id="path24"
         style="fill:#f48472;fill-opacity:1;fill-rule:nonzero;stroke:none"
         d="m 0,0 0,-82.379 54.919,0 0,14.876 -6.778,0 0,-4.97 -36.844,2.259 0,53.355 36.844,-10.601 0,-3.733 6.778,0 0,12.423 L 0,0 Z" /></g><g
       transform="translate(63.2394,49.6488)"
       id="g26"><path
         id="path28"
         style="fill:#76cddc;fill-opacity:1;fill-rule:nonzero;stroke:none"
         d="m 0,0 8.848,0 0,-11.125 -2.246,0 0,9.258 -4.356,0 0,-9.258 -2.246,0 L 0,0 Z" /></g><g
       id="g30"><g
         clip-path="url(#clipPath34)"
         id="g32"><g
           transform="translate(76.3416,49.6488)"
           id="g38"><path
             id="path40"
             style="fill:#76cddc;fill-opacity:1;fill-rule:nonzero;stroke:none"
             d="m 0,0 7.793,0 0,-11.125 -2.246,0 0,9.243 -3.346,0 0,-4.75 c 0,-1.361 -0.046,-2.311 -0.137,-2.85 -0.091,-0.539 -0.312,-0.959 -0.664,-1.26 -0.352,-0.301 -0.902,-0.451 -1.65,-0.451 -0.263,0 -0.742,0.025 -1.435,0.076 l 0,1.738 0.501,-0.008 c 0.471,0 0.787,0.063 0.949,0.19 0.162,0.126 0.243,0.437 0.243,0.933 L 0,-6.352 0,0 Z" /></g><g
           transform="translate(93.5113,42.9253)"
           id="g42"><path
             id="path44"
             style="fill:#76cddc;fill-opacity:1;fill-rule:nonzero;stroke:none"
             d="M 0,0 -1.533,4.128 -3.035,0 0,0 Z m 4.136,-4.401 -2.444,0 -0.971,2.527 -4.447,0 -0.918,-2.527 -2.383,0 4.333,11.124 2.375,0 4.455,-11.124 z" /></g><g
           transform="translate(106.7356,42.6142)"
           id="g46"><path
             id="path48"
             style="fill:#76cddc;fill-opacity:1;fill-rule:nonzero;stroke:none"
             d="M 0,0 2.178,-0.691 C 1.844,-1.905 1.289,-2.806 0.512,-3.396 -0.264,-3.985 -1.25,-4.28 -2.444,-4.28 c -1.477,0 -2.691,0.505 -3.642,1.514 -0.951,1.009 -1.427,2.389 -1.427,4.14 0,1.851 0.478,3.289 1.435,4.314 0.956,1.024 2.213,1.536 3.771,1.536 1.361,0 2.466,-0.402 3.316,-1.206 C 1.515,5.542 1.895,4.859 2.148,3.969 L -0.076,3.438 c -0.131,0.576 -0.406,1.032 -0.823,1.366 -0.418,0.333 -0.925,0.5 -1.522,0.5 -0.824,0 -1.493,-0.296 -2.007,-0.887 -0.513,-0.592 -0.77,-1.551 -0.77,-2.877 0,-1.406 0.253,-2.408 0.759,-3.005 0.506,-0.597 1.163,-0.895 1.973,-0.895 0.597,0 1.11,0.19 1.54,0.569 0.43,0.38 0.739,0.977 0.926,1.791" /></g><g
           transform="translate(114.1237,38.524)"
           id="g50"><path
             id="path52"
             style="fill:#76cddc;fill-opacity:1;fill-rule:nonzero;stroke:none"
             d="m 0,0 0,9.243 -3.301,0 0,1.882 8.841,0 0,-1.882 -3.294,0 L 2.246,0 0,0 Z" /></g><g
           transform="translate(122.3085,49.6488)"
           id="g54"><path
             id="path56"
             style="fill:#76cddc;fill-opacity:1;fill-rule:nonzero;stroke:none"
             d="m 0,0 2.102,0 0,-7.406 L 6.61,0 l 2.238,0 0,-11.125 -2.102,0 0,7.262 -4.5,-7.262 -2.246,0 L 0,0 Z" /></g><g
           transform="translate(134.6519,49.6488)"
           id="g58"><path
             id="path60"
             style="fill:#76cddc;fill-opacity:1;fill-rule:nonzero;stroke:none"
             d="m 0,0 2.246,0 0,-4.735 c 0.501,0.05 0.84,0.179 1.017,0.387 0.177,0.207 0.45,0.784 0.82,1.73 0.465,1.204 0.933,1.953 1.404,2.246 0.465,0.294 1.216,0.44 2.253,0.44 0.051,0 0.16,0.003 0.327,0.008 l 0,-1.662 -0.319,0.008 c -0.46,0 -0.797,-0.057 -1.009,-0.171 C 6.526,-1.863 6.354,-2.036 6.223,-2.269 6.091,-2.502 5.896,-2.98 5.638,-3.703 5.502,-4.088 5.354,-4.409 5.194,-4.667 5.035,-4.925 4.753,-5.168 4.348,-5.395 4.849,-5.537 5.263,-5.823 5.589,-6.253 5.915,-6.683 6.273,-7.29 6.663,-8.074 l 1.517,-3.051 -2.64,0 -1.328,2.876 c -0.021,0.041 -0.064,0.119 -0.129,0.236 -0.026,0.04 -0.119,0.215 -0.281,0.523 -0.289,0.547 -0.525,0.888 -0.71,1.025 -0.184,0.136 -0.466,0.207 -0.846,0.212 l 0,-4.872 -2.246,0 L 0,0 Z" /></g><g
           transform="translate(69.1053,21.3676)"
           id="g62"><path
             id="path64"
             style="fill:#f48472;fill-opacity:1;fill-rule:nonzero;stroke:none"
             d="M 0,0 -1.533,4.128 -3.035,0 0,0 Z m 4.136,-4.401 -2.444,0 -0.971,2.527 -4.447,0 -0.918,-2.527 -2.383,0 4.333,11.124 2.375,0 4.455,-11.124 z" /></g><g
           transform="translate(75.419,28.091)"
           id="g66"><path
             id="path68"
             style="fill:#f48472;fill-opacity:1;fill-rule:nonzero;stroke:none"
             d="m 0,0 7.793,0 0,-11.125 -2.246,0 0,9.243 -3.346,0 0,-4.75 c 0,-1.361 -0.046,-2.311 -0.137,-2.85 -0.091,-0.539 -0.312,-0.959 -0.664,-1.26 -0.352,-0.301 -0.902,-0.451 -1.65,-0.451 -0.263,0 -0.742,0.025 -1.435,0.076 l 0,1.738 0.501,-0.008 c 0.471,0 0.787,0.063 0.949,0.19 0.162,0.126 0.243,0.437 0.243,0.933 L 0,-6.352 0,0 Z" /></g><g
           transform="translate(91.833,22.5134)"
           id="g70"><path
             id="path72"
             style="fill:#f48472;fill-opacity:1;fill-rule:nonzero;stroke:none"
             d="m 0,0 c 0,-1.234 0.245,-2.187 0.736,-2.857 0.491,-0.67 1.181,-1.006 2.072,-1.006 0.915,0 1.602,0.333 2.06,0.998 0.458,0.666 0.687,1.663 0.687,2.994 0,1.275 -0.265,2.208 -0.793,2.8 C 4.233,3.521 3.556,3.817 2.732,3.817 1.927,3.817 1.271,3.517 0.763,2.918 0.254,2.318 0,1.346 0,0 m -6.298,5.578 2.246,0 0,-4.645 1.806,0 c 0.131,1.371 0.614,2.52 1.449,3.446 0.835,0.925 2.049,1.388 3.643,1.388 1.533,0 2.752,-0.496 3.657,-1.487 C 7.409,3.288 7.862,1.872 7.862,0.03 7.862,-1.174 7.664,-2.202 7.27,-3.054 6.875,-3.907 6.317,-4.567 5.597,-5.035 4.876,-5.503 3.979,-5.737 2.906,-5.737 c -1.092,0 -1.961,0.172 -2.606,0.516 -0.645,0.344 -1.209,0.901 -1.693,1.67 -0.483,0.769 -0.767,1.641 -0.853,2.618 l -1.806,0 0,-4.614 -2.246,0 0,11.125 z" /></g><g
           transform="translate(101.5235,16.9662)"
           id="g74"><path
             id="path76"
             style="fill:#f48472;fill-opacity:1;fill-rule:nonzero;stroke:none"
             d="m 0,0 0,11.125 3.362,0 2.018,-7.589 1.996,7.589 3.369,0 0,-11.125 -2.086,0 0,8.757 L 6.45,0 4.288,0 2.087,8.757 2.087,0 0,0 Z" /></g><g
           transform="translate(114.5303,28.091)"
           id="g78"><path
             id="path80"
             style="fill:#f48472;fill-opacity:1;fill-rule:nonzero;stroke:none"
             d="m 0,0 2.102,0 0,-7.406 L 6.61,0 l 2.238,0 0,-11.125 -2.102,0 0,7.262 -4.5,-7.262 -2.246,0 L 0,0 Z" /></g><g
           transform="translate(125.6778,16.9662)"
           id="g82"><path
             id="path84"
             style="fill:#f48472;fill-opacity:1;fill-rule:nonzero;stroke:none"
             d="m 0,0 0,11.125 2.246,0 0,-4.379 4.402,0 0,4.379 2.246,0 0,-11.125 -2.246,0 0,4.864 -4.402,0 L 2.246,0 0,0 Z" /></g><g
           transform="translate(136.924,28.091)"
           id="g86"><path
             id="path88"
             style="fill:#f48472;fill-opacity:1;fill-rule:nonzero;stroke:none"
             d="m 0,0 2.102,0 0,-7.406 L 6.61,0 l 2.238,0 0,-11.125 -2.102,0 0,7.262 -4.5,-7.262 -2.246,0 L 0,0 Z" /></g><g
           transform="translate(148.0943,28.091)"
           id="g90"><path
             id="path92"
             style="fill:#f48472;fill-opacity:1;fill-rule:nonzero;stroke:none"
             d="m 0,0 2.102,0 0,-7.406 L 6.61,0 l 2.238,0 0,-11.125 -2.102,0 0,7.262 -4.5,-7.262 -2.246,0 L 0,0 Z" /></g><g
           transform="translate(64.0375,33.2032)"
           id="g94"><path
             id="path96"
             style="fill:#9ca0a0;fill-opacity:1;fill-rule:nonzero;stroke:none"
             d="m 0,0 c 0,-0.356 0.078,-0.623 0.234,-0.8 0.156,-0.177 0.352,-0.266 0.589,-0.266 0.234,0 0.43,0.089 0.585,0.267 0.156,0.179 0.234,0.45 0.234,0.815 C 1.642,0.36 1.564,0.62 1.407,0.798 1.25,0.975 1.055,1.064 0.823,1.064 0.586,1.064 0.39,0.976 0.234,0.799 0.078,0.623 0,0.357 0,0 m -0.486,0 c 0,0.515 0.144,0.897 0.431,1.145 0.24,0.206 0.532,0.309 0.878,0.309 0.383,0 0.697,-0.125 0.94,-0.376 C 2.007,0.828 2.129,0.481 2.129,0.04 2.129,-0.319 2.075,-0.6 1.967,-0.805 1.859,-1.011 1.702,-1.17 1.496,-1.283 c -0.205,-0.114 -0.43,-0.17 -0.673,-0.17 -0.391,0 -0.707,0.124 -0.948,0.374 -0.241,0.25 -0.361,0.61 -0.361,1.079" /></g><g
           transform="translate(69.9464,34.5944)"
           id="g98"><path
             id="path100"
             style="fill:#9ca0a0;fill-opacity:1;fill-rule:nonzero;stroke:none"
             d="m 0,0 0.473,0 0,-1.202 c 0.151,0 0.256,0.028 0.316,0.086 0.061,0.057 0.149,0.226 0.267,0.503 0.093,0.22 0.168,0.365 0.226,0.435 0.058,0.07 0.124,0.117 0.2,0.141 C 1.557,-0.012 1.678,0 1.845,0 l 0.094,0 0,-0.39 -0.132,0.002 C 1.683,-0.388 1.604,-0.406 1.568,-0.443 1.532,-0.481 1.475,-0.596 1.4,-0.786 1.329,-0.968 1.263,-1.093 1.203,-1.163 1.144,-1.233 1.052,-1.296 0.927,-1.355 1.131,-1.408 1.331,-1.597 1.527,-1.92 l 0.517,-0.862 -0.52,0 -0.505,0.862 c -0.103,0.173 -0.193,0.287 -0.27,0.342 -0.077,0.055 -0.169,0.082 -0.276,0.082 l 0,-1.286 L 0,-2.782 0,0 Z" /></g><g
           transform="translate(75.9021,33.2032)"
           id="g102"><path
             id="path104"
             style="fill:#9ca0a0;fill-opacity:1;fill-rule:nonzero;stroke:none"
             d="m 0,0 c 0,-0.356 0.078,-0.623 0.234,-0.8 0.156,-0.177 0.352,-0.266 0.589,-0.266 0.234,0 0.43,0.089 0.585,0.267 0.156,0.179 0.234,0.45 0.234,0.815 C 1.642,0.36 1.564,0.62 1.407,0.798 1.25,0.975 1.055,1.064 0.823,1.064 0.586,1.064 0.39,0.976 0.234,0.799 0.078,0.623 0,0.357 0,0 m -0.486,0 c 0,0.515 0.144,0.897 0.431,1.145 0.24,0.206 0.532,0.309 0.878,0.309 0.383,0 0.697,-0.125 0.94,-0.376 C 2.007,0.828 2.129,0.481 2.129,0.04 2.129,-0.319 2.075,-0.6 1.967,-0.805 1.859,-1.011 1.702,-1.17 1.496,-1.283 c -0.205,-0.114 -0.43,-0.17 -0.673,-0.17 -0.391,0 -0.707,0.124 -0.948,0.374 -0.241,0.25 -0.361,0.61 -0.361,1.079" /></g><g
           transform="translate(81.8161,34.5944)"
           id="g106"><path
             id="path108"
             style="fill:#9ca0a0;fill-opacity:1;fill-rule:nonzero;stroke:none"
             d="m 0,0 0.473,0 0,-1.158 1.311,0 0,1.158 0.473,0 0,-2.782 -0.473,0 0,1.234 -1.311,0 0,-1.234 L 0,-2.782 0,0 Z" /></g><g
           transform="translate(88.0166,34.5944)"
           id="g110"><path
             id="path112"
             style="fill:#9ca0a0;fill-opacity:1;fill-rule:nonzero;stroke:none"
             d="m 0,0 0.473,0 0,-1.158 1.311,0 0,1.158 0.473,0 0,-2.782 -0.473,0 0,1.234 -1.311,0 0,-1.234 L 0,-2.782 0,0 Z" /></g><g
           transform="translate(95.9959,33.2088)"
           id="g114"><path
             id="path116"
             style="fill:#9ca0a0;fill-opacity:1;fill-rule:nonzero;stroke:none"
             d="m 0,0 c -0.171,-0.07 -0.429,-0.13 -0.773,-0.178 -0.194,-0.028 -0.332,-0.06 -0.412,-0.095 -0.08,-0.034 -0.143,-0.086 -0.187,-0.153 -0.043,-0.067 -0.065,-0.142 -0.065,-0.224 0,-0.125 0.048,-0.23 0.143,-0.314 0.096,-0.084 0.235,-0.126 0.419,-0.126 0.182,0 0.344,0.04 0.486,0.119 0.142,0.08 0.246,0.189 0.313,0.327 C -0.025,-0.538 0,-0.381 0,-0.173 L 0,0 Z m 0.039,-1.053 c -0.175,-0.149 -0.343,-0.253 -0.505,-0.314 -0.163,-0.062 -0.336,-0.092 -0.522,-0.092 -0.306,0 -0.542,0.075 -0.707,0.224 -0.164,0.149 -0.247,0.34 -0.247,0.572 0,0.136 0.032,0.261 0.094,0.373 0.062,0.113 0.143,0.203 0.244,0.272 0.101,0.067 0.214,0.119 0.34,0.154 0.093,0.025 0.233,0.048 0.42,0.071 0.382,0.045 0.664,0.099 0.844,0.162 0.002,0.065 0.003,0.106 0.003,0.123 0,0.192 -0.045,0.328 -0.135,0.406 -0.12,0.107 -0.3,0.16 -0.538,0.16 -0.222,0 -0.387,-0.039 -0.493,-0.116 C -1.269,0.864 -1.347,0.726 -1.398,0.529 L -1.86,0.592 c 0.042,0.197 0.111,0.357 0.208,0.478 0.096,0.121 0.235,0.214 0.417,0.28 0.182,0.066 0.393,0.098 0.634,0.098 0.237,0 0.431,-0.028 0.58,-0.083 C 0.128,1.308 0.237,1.238 0.307,1.153 0.378,1.069 0.426,0.962 0.455,0.833 0.47,0.753 0.478,0.608 0.478,0.398 l 0,-0.629 c 0,-0.438 0.01,-0.715 0.03,-0.831 0.021,-0.117 0.061,-0.228 0.12,-0.334 l -0.494,0 c -0.049,0.098 -0.081,0.212 -0.095,0.343" /></g><g
           transform="translate(102.1629,34.2042)"
           id="g118"><path
             id="path120"
             style="fill:#9ca0a0;fill-opacity:1;fill-rule:nonzero;stroke:none"
             d="M 0,0 -0.673,0 C -0.955,0 -1.136,-0.044 -1.218,-0.131 -1.3,-0.219 -1.34,-0.321 -1.34,-0.438 c 0,-0.165 0.06,-0.287 0.18,-0.365 0.12,-0.078 0.332,-0.116 0.637,-0.116 L 0,-0.919 0,0 Z m 0.47,0.39 0,-2.782 -0.47,0 0,1.085 -0.273,0 c -0.167,0 -0.29,-0.022 -0.372,-0.065 -0.082,-0.042 -0.2,-0.18 -0.356,-0.412 l -0.413,-0.608 -0.586,0 0.51,0.75 c 0.156,0.228 0.311,0.358 0.465,0.387 -0.269,0.037 -0.47,0.134 -0.6,0.291 -0.13,0.157 -0.196,0.338 -0.196,0.542 0,0.241 0.085,0.437 0.256,0.587 0.171,0.15 0.419,0.225 0.742,0.225 l 1.293,0 z" /></g><g
           transform="translate(111.3001,34.5944)"
           id="g122"><path
             id="path124"
             style="fill:#9ca0a0;fill-opacity:1;fill-rule:nonzero;stroke:none"
             d="m 0,0 0.473,0 0,-1.202 c 0.151,0 0.256,0.028 0.316,0.086 0.061,0.057 0.149,0.226 0.267,0.503 0.093,0.22 0.168,0.365 0.226,0.435 0.058,0.07 0.124,0.117 0.2,0.141 C 1.557,-0.012 1.678,0 1.845,0 l 0.094,0 0,-0.39 -0.132,0.002 C 1.683,-0.388 1.604,-0.406 1.568,-0.443 1.532,-0.481 1.475,-0.596 1.4,-0.786 1.329,-0.968 1.263,-1.093 1.203,-1.163 1.144,-1.233 1.052,-1.296 0.927,-1.355 1.131,-1.408 1.331,-1.597 1.527,-1.92 l 0.517,-0.862 -0.52,0 -0.505,0.862 c -0.103,0.173 -0.193,0.287 -0.27,0.342 -0.077,0.055 -0.169,0.082 -0.276,0.082 l 0,-1.286 L 0,-2.782 0,0 Z" /></g><g
           transform="translate(117.2558,33.2032)"
           id="g126"><path
             id="path128"
             style="fill:#9ca0a0;fill-opacity:1;fill-rule:nonzero;stroke:none"
             d="m 0,0 c 0,-0.356 0.078,-0.623 0.234,-0.8 0.156,-0.177 0.352,-0.266 0.589,-0.266 0.234,0 0.43,0.089 0.585,0.267 0.156,0.179 0.234,0.45 0.234,0.815 C 1.642,0.36 1.564,0.62 1.407,0.798 1.25,0.975 1.055,1.064 0.823,1.064 0.586,1.064 0.39,0.976 0.234,0.799 0.078,0.623 0,0.357 0,0 m -0.486,0 c 0,0.515 0.144,0.897 0.431,1.145 0.24,0.206 0.532,0.309 0.878,0.309 0.383,0 0.697,-0.125 0.94,-0.376 C 2.007,0.828 2.129,0.481 2.129,0.04 2.129,-0.319 2.075,-0.6 1.967,-0.805 1.859,-1.011 1.702,-1.17 1.496,-1.283 c -0.205,-0.114 -0.43,-0.17 -0.673,-0.17 -0.391,0 -0.707,0.124 -0.948,0.374 -0.241,0.25 -0.361,0.61 -0.361,1.079" /></g><g
           transform="translate(123.1806,34.5944)"
           id="g130"><path
             id="path132"
             style="fill:#9ca0a0;fill-opacity:1;fill-rule:nonzero;stroke:none"
             d="M 0,0 0.735,0 1.468,-2.227 2.283,0 l 0.681,0 0,-2.782 -0.473,0 0,2.239 -0.825,-2.239 -0.423,0 -0.781,2.347 0,-2.347 L 0,-2.782 0,0 Z" /></g><g
           transform="translate(130.0981,34.5944)"
           id="g134"><path
             id="path136"
             style="fill:#9ca0a0;fill-opacity:1;fill-rule:nonzero;stroke:none"
             d="m 0,0 2.202,0 0,-2.782 -0.473,0 0,2.392 -1.256,0 0,-2.392 L 0,-2.782 0,0 Z" /></g><g
           transform="translate(138.0199,33.2088)"
           id="g138"><path
             id="path140"
             style="fill:#9ca0a0;fill-opacity:1;fill-rule:nonzero;stroke:none"
             d="m 0,0 c -0.171,-0.07 -0.429,-0.13 -0.773,-0.178 -0.194,-0.028 -0.332,-0.06 -0.412,-0.095 -0.08,-0.034 -0.143,-0.086 -0.187,-0.153 -0.043,-0.067 -0.065,-0.142 -0.065,-0.224 0,-0.125 0.048,-0.23 0.143,-0.314 0.096,-0.084 0.235,-0.126 0.419,-0.126 0.182,0 0.344,0.04 0.486,0.119 0.142,0.08 0.246,0.189 0.313,0.327 C -0.025,-0.538 0,-0.381 0,-0.173 L 0,0 Z m 0.039,-1.053 c -0.175,-0.149 -0.343,-0.253 -0.505,-0.314 -0.163,-0.062 -0.336,-0.092 -0.522,-0.092 -0.306,0 -0.542,0.075 -0.707,0.224 -0.164,0.149 -0.247,0.34 -0.247,0.572 0,0.136 0.032,0.261 0.094,0.373 0.062,0.113 0.143,0.203 0.244,0.272 0.101,0.067 0.214,0.119 0.34,0.154 0.093,0.025 0.233,0.048 0.42,0.071 0.382,0.045 0.664,0.099 0.844,0.162 0.002,0.065 0.003,0.106 0.003,0.123 0,0.192 -0.045,0.328 -0.135,0.406 -0.12,0.107 -0.3,0.16 -0.538,0.16 -0.222,0 -0.387,-0.039 -0.493,-0.116 C -1.269,0.864 -1.347,0.726 -1.398,0.529 L -1.86,0.592 c 0.042,0.197 0.111,0.357 0.208,0.478 0.096,0.121 0.235,0.214 0.417,0.28 0.182,0.066 0.393,0.098 0.634,0.098 0.237,0 0.431,-0.028 0.58,-0.083 C 0.128,1.308 0.237,1.238 0.307,1.153 0.378,1.069 0.426,0.962 0.455,0.833 0.47,0.753 0.478,0.608 0.478,0.398 l 0,-0.629 c 0,-0.438 0.01,-0.715 0.03,-0.831 0.021,-0.117 0.061,-0.228 0.12,-0.334 l -0.494,0 c -0.049,0.098 -0.081,0.212 -0.095,0.343" /></g><g
           transform="translate(142.4624,34.5944)"
           id="g142"><path
             id="path144"
             style="fill:#9ca0a0;fill-opacity:1;fill-rule:nonzero;stroke:none"
             d="m 0,0 0.473,0 0,-1.158 1.311,0 0,1.158 0.473,0 0,-2.782 -0.473,0 0,1.234 -1.311,0 0,-1.234 L 0,-2.782 0,0 Z" /></g><g
           transform="translate(148.6603,34.5944)"
           id="g146"><path
             id="path148"
             style="fill:#9ca0a0;fill-opacity:1;fill-rule:nonzero;stroke:none"
             d="m 0,0 0.473,0 0,-2.122 1.311,2.122 0.51,0 0,-2.782 -0.473,0 0,2.109 L 0.51,-2.782 0,-2.782 0,0 Z" /></g><g
           transform="translate(156.6213,34.2042)"
           id="g150"><path
             id="path152"
             style="fill:#9ca0a0;fill-opacity:1;fill-rule:nonzero;stroke:none"
             d="M 0,0 -0.673,0 C -0.955,0 -1.136,-0.044 -1.218,-0.131 -1.3,-0.219 -1.34,-0.321 -1.34,-0.438 c 0,-0.165 0.06,-0.287 0.18,-0.365 0.12,-0.078 0.332,-0.116 0.637,-0.116 L 0,-0.919 0,0 Z m 0.47,0.39 0,-2.782 -0.47,0 0,1.085 -0.273,0 c -0.167,0 -0.29,-0.022 -0.372,-0.065 -0.082,-0.042 -0.2,-0.18 -0.356,-0.412 l -0.413,-0.608 -0.586,0 0.51,0.75 c 0.156,0.228 0.311,0.358 0.465,0.387 -0.269,0.037 -0.47,0.134 -0.6,0.291 -0.13,0.157 -0.196,0.338 -0.196,0.542 0,0.241 0.085,0.437 0.256,0.587 0.171,0.15 0.419,0.225 0.742,0.225 l 1.293,0 z" /></g><g
           transform="translate(151.4847,40.3832)"
           id="g154"><path
             id="path156"
             style="fill:#76cddc;fill-opacity:1;fill-rule:nonzero;stroke:none"
             d="m 0,0 c -0.309,-0.132 -0.63,-0.197 -0.964,-0.197 -0.506,0 -0.909,0.145 -1.21,0.436 -0.301,0.291 -0.452,0.667 -0.452,1.127 0,0.364 0.122,0.721 0.365,1.07 0.242,0.349 0.609,0.647 1.1,0.895 L 1.009,0.653 C 0.645,0.349 0.309,0.132 0,0 M 3.726,0.858 C 3.888,1.07 4.04,1.334 4.181,1.651 4.323,1.967 4.49,2.466 4.682,3.149 L 2.755,3.589 C 2.623,3.068 2.466,2.646 2.284,2.322 l -1.31,1.728 -4.298,0 C -3.664,3.791 -3.95,3.514 -4.174,3.214 -4.599,2.645 -4.811,2.003 -4.811,1.29 c 0,-0.784 0.271,-1.477 0.812,-2.079 0.698,-0.779 1.74,-1.169 3.126,-1.169 0.698,0 1.3,0.096 1.806,0.289 0.506,0.192 0.984,0.49 1.435,0.895 0.581,-0.541 1.188,-0.966 1.821,-1.275 l 1.29,1.647 C 5.302,-0.316 5.025,-0.14 4.648,0.125 4.271,0.391 3.964,0.635 3.726,0.858" /></g><g
           transform="translate(150.5041,48.1804)"
           id="g158"><path
             id="path160"
             style="fill:#f48472;fill-opacity:1;fill-rule:nonzero;stroke:none"
             d="m 0,0 c 0.192,0.169 0.458,0.254 0.797,0.254 0.349,0 0.626,-0.096 0.831,-0.288 0.205,-0.192 0.307,-0.425 0.307,-0.698 0,-0.324 -0.212,-0.65 -0.637,-0.979 l -0.577,-0.44 -0.524,0.607 c -0.323,0.374 -0.485,0.693 -0.485,0.956 0,0.222 0.096,0.419 0.288,0.588 m -1.222,-3.1 c -0.4,-0.199 -0.749,-0.415 -1.054,-0.647 l 4.297,0 -0.238,0.313 c 0.815,0.511 1.356,0.969 1.624,1.374 0.268,0.404 0.402,0.832 0.402,1.282 0,0.708 -0.27,1.308 -0.812,1.799 -0.541,0.49 -1.292,0.736 -2.253,0.736 -0.997,0 -1.765,-0.234 -2.303,-0.702 -0.539,-0.468 -0.809,-1.039 -0.809,-1.711 0,-0.365 0.097,-0.75 0.289,-1.158 0.192,-0.407 0.478,-0.836 0.857,-1.286" /></g></g></g></g></svg>